<svg version="1.1" xmlns="http://www.w3.org/2000/svg" viewBox="0 0 178 200">
<defs>
  <clipPath id="rounded">
    <rect width="178" height="200" rx="36"/>
  </clipPath>
</defs>
<rect fill="#111111" width="178" height="200" rx="36"/>
<g clip-path="url(#rounded)">
  <path fill="#FFFFFF" opacity="1.000000" stroke="none" d="M97.531342,1.000000 C98.486176,1.662345 98.881012,2.797242 99.473083,2.911675 C103.890762,3.765491 108.347473,4.417284 113.010925,5.167643 C111.542923,16.754057 110.115875,28.017160 108.589653,40.063091 C103.830032,39.204475 98.891174,38.171242 93.907692,37.443604 C82.920639,35.839382 73.620590,38.415051 70.573914,48.210346 C68.715988,54.183723 69.120590,60.860825 68.465889,67.669724 C81.451233,67.669724 93.855034,67.669724 106.619728,67.669724 C106.619728,78.906082 106.619728,89.757042 106.619728,101.003723 C94.194992,101.003723 81.791916,101.003723 68.999474,101.003723 C68.999474,117.500946 68.999474,133.609085 68.999474,149.717239 C68.999474,165.664856 68.999474,181.612457 68.999474,197.778961 C53.253807,197.778961 37.858799,197.778961 22.049490,197.778961 C22.049490,181.557648 22.049490,165.455460 22.049490,149.353271 C22.049490,133.399292 22.049490,117.445297 22.049490,100.999725 C15.151914,100.999725 8.544561,100.999725 1.468604,100.999863 C1.000000,90.312439 1.000000,79.624878 1.468611,68.469200 C8.852172,68.001083 15.767123,68.001083 23.001007,68.001083 C23.001007,64.926003 22.779421,62.282791 23.041294,59.688381 C23.935596,50.828457 24.050159,41.745892 26.210487,33.189686 C29.933945,18.442549 38.861980,7.840940 54.329975,3.850496 C55.706806,3.495299 56.783768,1.977724 58.000000,1.000000 C71.020897,1.000000 84.041786,1.000000 97.531342,1.000000 z"/>
  <path fill="#111111" opacity="1.000000" stroke="none" d="M57.531342,1.000000 C56.783768,1.977724 55.706806,3.495299 54.329975,3.850496 C38.861980,7.840940 29.933945,18.442549 26.210487,33.189686 C24.050159,41.745892 23.935596,50.828457 23.041294,59.688381 C22.779421,62.282791 23.001007,64.926003 23.001007,68.001083 C15.767123,68.001083 8.852172,68.001083 1.468611,68.000542 C1.000000,45.745750 1.000000,23.491501 1.000000,1.000000 C19.686892,1.000000 38.374786,1.000000 57.531342,1.000000 z"/>
  <path fill="#FFFFFF" opacity="1.000000" stroke="none" d="M147.000061,198.000000 C139.526199,198.000000 132.552292,198.000000 125.290199,198.000000 C125.290199,155.404327 125.290199,113.021828 125.290199,70.319656 C140.544846,70.319656 155.940247,70.319656 171.832550,70.319656 C171.832550,71.579521 171.832550,73.006851 171.832550,74.434181 C171.731628,113.571487 171.953979,152.709381 171.983398,197.025055 C170.485733,198.482513 165.478577,198.105667 159.516830,197.656998 C153.495514,198.000000 147.000061,198.000000 z"/>
  <path fill="#FFFFFF" opacity="1.000000" stroke="none" d="M133.407471,11.242754 C143.427628,6.972839 152.810486,6.461631 162.498672,11.695937 C170.245483,15.881364 174.058701,22.355995 174.882660,30.440065 C176.788498,49.139263 165.416397,59.577503 148.505646,60.773968 C137.653854,61.541752 123.336182,54.434216 121.777077,38.318058 C120.664162,26.814108 123.667885,18.038647 133.407471,11.242754 z"/>
</g>
</svg>
