<svg width="300" height="300" viewBox="0 0 300 300" fill="none" xmlns="http://www.w3.org/2000/svg">
<rect width="300" height="300" rx="150" fill="black"/>
<path d="M174.627 55.0135C169.964 54.2632 165.507 53.6114 161.089 52.7575C152.318 51.354 131.01 49.5768 115.946 53.6964C100.478 57.6868 91.5502 68.2884 87.8267 83.0356C85.6664 91.5918 85.5518 100.674 84.6575 109.534C84.3957 112.129 84.6173 114.772 84.6173 117.847C77.3834 117.847 70.4684 117.847 63.0849 118.315C62.6162 129.471 62.6162 140.158 63.0849 150.846L83.6657 150.846V199.199V247.625H130.616V199.563V150.85H168.236V117.516H130.082C130.737 110.707 130.332 104.03 132.19 98.0562C135.237 88.2609 144.537 85.6853 155.524 87.2895C160.507 88.0171 165.446 89.0503 170.206 89.909L174.627 55.0135Z" fill="white"/>
<path d="M208.721 248.694C201.247 248.694 194.273 248.694 187.011 248.694C187.011 206.098 187.132 160.232 187.132 117.53C202.386 117.53 217.782 117.53 233.674 117.53C233.674 118.79 233.674 120.217 233.674 121.644C233.674 160.781 233.452 203.403 233.675 242.539C233.704 247.719 232.207 249.177 227.199 248.8C221.238 248.351 215.216 248.694 208.721 248.694Z" fill="white"/>
<path d="M195.583 54.4817C205.604 50.2118 214.986 49.7006 224.675 54.9349C232.421 59.1203 236.235 65.5949 237.059 73.679C238.964 92.3782 227.592 102.816 210.682 104.013C199.83 104.781 185.512 97.6732 183.953 81.557C182.84 70.053 185.844 61.2776 195.583 54.4817Z" fill="white"/>
</svg>
