<svg xmlns="http://www.w3.org/2000/svg" viewBox="0 0 580 200">
<path fill="transparent" d="
M581.000000,80.999992 
	C581.000000,120.939369 581.000000,160.878738 581.000000,201.000000 
	C524.979248,201.000000 468.958282,201.000000 412.169312,200.647675 
	C411.749512,199.943329 412.040710,199.382858 412.454285,199.269745 
	C423.358185,196.287399 434.274750,193.351273 445.547729,190.310532 
	C443.559052,177.899872 441.747009,166.591660 439.904144,155.090988 
	C436.749725,156.166458 434.077820,157.152405 431.360565,157.991241 
	C417.472504,162.278488 403.264496,163.689194 388.760193,163.071732 
	C382.388031,162.800461 376.679382,160.836975 371.789612,157.110992 
	C367.791016,154.064087 364.851776,149.917679 364.974945,143.873062 
	C391.789337,143.873062 418.360229,143.873062 445.320343,143.873062 
	C446.026947,134.316925 447.189789,125.211494 447.200073,116.104759 
	C447.206848,110.112144 446.590485,103.713600 444.444916,98.200562 
	C438.269531,82.332848 426.502686,71.838539 409.980377,67.602829 
	C397.705231,64.455925 385.222076,63.828697 372.437256,65.815201 
	C356.956635,68.220581 343.955475,75.196518 333.645294,86.246834 
	C323.105347,97.543388 318.155304,111.882233 318.120728,127.428146 
	C318.102997,135.410431 318.747437,143.499146 320.136047,151.355331 
	C322.297302,163.583176 328.593842,173.775513 337.670013,182.272400 
	C347.288391,191.276871 358.782715,196.393173 371.529785,199.077347 
	C372.128265,199.203369 372.514771,200.336105 373.000000,201.000000 
	C344.979095,201.000000 316.958221,201.000000 288.169159,200.645996 
	C290.473114,199.527756 293.506775,198.466690 296.625549,198.062653 
	C302.637787,197.283768 304.657501,195.373260 304.000671,190.517044 
	C302.678894,180.744171 301.406250,170.964630 300.092987,161.033936 
	C299.547516,161.033936 298.709259,160.940216 297.897949,161.048599 
	C290.686340,162.012115 283.484985,163.768524 276.269928,163.820801 
	C265.732819,163.897156 259.070618,156.707886 259.008698,146.471298 
	C258.963318,138.974655 259.000000,131.477493 259.000031,123.980568 
	C259.000092,116.384979 259.000031,108.789391 259.000031,100.811752 
	C272.320801,100.811752 285.060699,100.811752 297.705322,100.811752 
	C297.705322,89.676247 297.705322,78.939804 297.705322,67.812927 
	C284.676117,67.812927 271.936249,67.812927 258.813263,67.812927 
	C258.813263,54.346497 258.813263,41.273296 258.813263,28.263702 
	C244.994125,28.263702 231.571686,28.263702 218.223114,28.263702 
	C216.467072,41.671272 214.746689,54.806618 212.985092,68.256630 
	C204.922760,68.256630 197.510849,68.256630 190.000076,68.256630 
	C190.000076,77.325096 190.139816,85.982834 189.924683,94.631737 
	C189.848831,97.680923 191.209793,98.691757 193.804016,98.997345 
	C200.085968,99.737328 206.367020,100.484932 213.001358,101.271294 
	C213.001358,117.505791 212.781738,133.634003 213.118164,149.750626 
	C213.239059,155.542389 214.095169,161.475647 215.660034,167.051239 
	C220.515427,184.350815 231.831497,195.150894 249.532471,199.073822 
	C250.134369,199.207199 250.515808,200.335464 251.000000,201.000000 
	C167.770935,201.000000 84.541878,201.000000 1.000000,201.000000 
	C1.000000,167.979767 1.000000,134.958542 1.468604,101.468521 
	C8.544561,100.999725 15.151914,100.999725 22.049490,100.999725 
	C22.049490,117.445297 22.049490,133.399292 22.049490,149.353271 
	C22.049490,165.455460 22.049490,181.557648 22.049490,197.778961 
	C37.858799,197.778961 53.253807,197.778961 68.999474,197.778961 
	C68.999474,181.612457 68.999474,165.664856 68.999474,149.717239 
	C68.999474,133.609085 68.999474,117.500946 68.999474,101.003723 
	C81.791916,101.003723 94.194992,101.003723 106.619728,101.003723 
	C106.619728,89.757042 106.619728,78.906082 106.619728,67.669724 
	C93.855034,67.669724 81.451233,67.669724 68.465889,67.669724 
	C69.120590,60.860825 68.715988,54.183723 70.573914,48.210346 
	C73.620590,38.415051 82.920639,35.839382 93.907692,37.443604 
	C98.891174,38.171242 103.830032,39.204475 108.589653,40.063091 
	C110.115875,28.017160 111.542923,16.754057 113.010925,5.167643 
	C108.347473,4.417284 103.890762,3.765491 99.473083,2.911675 
	C98.881012,2.797242 98.486176,1.662345 98.000000,1.000000 
	C259.000000,1.000000 420.000031,1.000000 581.000000,1.000000 
	C581.000000,23.765232 581.000000,46.413960 580.688477,69.839226 
	C578.937927,69.935127 577.550537,69.098282 576.050415,68.602562 
	C571.204285,67.001083 566.385010,64.521812 561.432495,64.184235 
	C544.975464,63.062481 529.838257,65.898750 520.486877,82.269119 
	C517.309631,71.836052 510.215424,66.600502 500.135254,66.090958 
	C490.005280,65.578903 479.820618,65.790924 469.677979,66.169228 
	C467.484344,66.251053 463.840607,66.212997 463.950104,70.568474 
	C464.133911,77.879715 464.000458,85.198936 464.000458,92.464073 
	C475.509552,94.733871 476.129700,97.123558 476.065338,107.052803 
	C475.880737,135.544083 476.000031,164.037354 475.999908,192.529831 
	C475.999908,194.291321 475.999969,196.052811 475.999969,197.700958 
	C491.669739,197.700958 506.739929,197.700958 521.999695,197.700958 
	C521.999695,175.926941 521.926208,154.450958 522.070312,132.976440 
	C522.095032,129.287979 522.526672,125.436996 523.658142,121.949097 
	C529.319885,104.496185 549.817871,99.823616 564.445679,106.164055 
	C567.191833,107.354370 569.815491,108.827385 572.448853,110.146515 
	C574.759521,100.309875 576.953857,90.902161 579.245422,81.518211 
	C579.318176,81.220406 580.392578,81.167213 581.000000,80.999992 
M147.500000,198.000000 
	C153.495514,198.000000 159.516830,197.656998 165.478577,198.105667 
	C170.485733,198.482513 171.983398,197.025055 171.953979,191.845413 
	C171.731628,152.709381 171.832550,113.571487 171.832550,74.434181 
	C171.832550,73.006851 171.832550,71.579521 171.832550,70.319656 
	C155.940247,70.319656 140.544846,70.319656 125.290199,70.319656 
	C125.290199,113.021828 125.290199,155.404327 125.290199,198.000000 
	C132.552292,198.000000 139.526199,198.000000 147.500000,198.000000 
M133.064209,11.437080 
	C123.667885,18.038647 120.664162,26.814108 121.777077,38.318058 
	C123.336182,54.434216 137.653854,61.541752 148.505646,60.773968 
	C165.416397,59.577503 176.788498,49.139263 174.882660,30.440065 
	C174.058701,22.355995 170.245483,15.881364 162.498672,11.695937 
	C152.810486,6.461631 143.427628,6.972839 133.064209,11.437080 
z"/>
<path fill="#FFFFFF" d="
M373.468658,201.000000 
	C372.514771,200.336105 372.128265,199.203369 371.529785,199.077347 
	C358.782715,196.393173 347.288391,191.276871 337.670013,182.272400 
	C328.593842,173.775513 322.297302,163.583176 320.136047,151.355331 
	C318.747437,143.499146 318.102997,135.410431 318.120728,127.428146 
	C318.155304,111.882233 323.105347,97.543388 333.645294,86.246834 
	C343.955475,75.196518 356.956635,68.220581 372.437256,65.815201 
	C385.222076,63.828697 397.705231,64.455925 409.980377,67.602829 
	C426.502686,71.838539 438.269531,82.332848 444.444916,98.200562 
	C446.590485,103.713600 447.206848,110.112144 447.200073,116.104759 
	C447.189789,125.211494 446.026947,134.316925 445.320343,143.873062 
	C418.360229,143.873062 391.789337,143.873062 364.974945,143.873062 
	C364.851776,149.917679 367.791016,154.064087 371.789612,157.110992 
	C376.679382,160.836975 382.388031,162.800461 388.760193,163.071732 
	C403.264496,163.689194 417.472504,162.278488 431.360565,157.991241 
	C434.077820,157.152405 436.749725,156.166458 439.904144,155.090988 
	C441.747009,166.591660 443.559052,177.899872 445.547729,190.310532 
	C434.274750,193.351273 423.358185,196.287399 412.454285,199.269745 
	C412.040710,199.382858 411.749512,199.943329 411.700653,200.647675 
	C399.312439,201.000000 386.624878,201.000000 373.468658,201.000000 
M371.143951,105.366890 
	C368.968353,108.645554 366.792755,111.924217 364.256012,115.747124 
	C378.478668,115.747124 391.696320,115.747124 404.905579,115.747124 
	C405.115631,107.809929 398.913147,101.415024 391.065369,100.972252 
	C384.266632,100.588661 377.679016,100.909546 371.143951,105.366890 
z"/>
<path fill="#FFFFFF" d="
M97.531342,1.000000 
	C98.486176,1.662345 98.881012,2.797242 99.473083,2.911675 
	C103.890762,3.765491 108.347473,4.417284 113.010925,5.167643 
	C111.542923,16.754057 110.115875,28.017160 108.589653,40.063091 
	C103.830032,39.204475 98.891174,38.171242 93.907692,37.443604 
	C82.920639,35.839382 73.620590,38.415051 70.573914,48.210346 
	C68.715988,54.183723 69.120590,60.860825 68.465889,67.669724 
	C81.451233,67.669724 93.855034,67.669724 106.619728,67.669724 
	C106.619728,78.906082 106.619728,89.757042 106.619728,101.003723 
	C94.194992,101.003723 81.791916,101.003723 68.999474,101.003723 
	C68.999474,117.500946 68.999474,133.609085 68.999474,149.717239 
	C68.999474,165.664856 68.999474,181.612457 68.999474,197.778961 
	C53.253807,197.778961 37.858799,197.778961 22.049490,197.778961 
	C22.049490,181.557648 22.049490,165.455460 22.049490,149.353271 
	C22.049490,133.399292 22.049490,117.445297 22.049490,100.999725 
	C15.151914,100.999725 8.544561,100.999725 1.468604,100.999863 
	C1.000000,90.312439 1.000000,79.624878 1.468611,68.469200 
	C8.852172,68.001083 15.767123,68.001083 23.001007,68.001083 
	C23.001007,64.926003 22.779421,62.282791 23.041294,59.688381 
	C23.935596,50.828457 24.050159,41.745892 26.210487,33.189686 
	C29.933945,18.442549 38.861980,7.840940 54.329975,3.850496 
	C55.706806,3.495299 56.783768,1.977724 58.000000,1.000000 
	C71.020897,1.000000 84.041786,1.000000 97.531342,1.000000 
z"/>
<path fill="#FFFFFF" d="
M251.468658,201.000000 
	C250.515808,200.335464 250.134369,199.207199 249.532471,199.073822 
	C231.831497,195.150894 220.515427,184.350815 215.660034,167.051239 
	C214.095169,161.475647 213.239059,155.542389 213.118164,149.750626 
	C212.781738,133.634003 213.001358,117.505791 213.001358,101.271294 
	C206.367020,100.484932 200.085968,99.737328 193.804016,98.997345 
	C191.209793,98.691757 189.848831,97.680923 189.924683,94.631737 
	C190.139816,85.982834 190.000076,77.325096 190.000076,68.256630 
	C197.510849,68.256630 204.922760,68.256630 212.985092,68.256630 
	C214.746689,54.806618 216.467072,41.671272 218.223114,28.263702 
	C231.571686,28.263702 244.994125,28.263702 258.813263,28.263702 
	C258.813263,41.273296 258.813263,54.346497 258.813263,67.812927 
	C271.936249,67.812927 284.676117,67.812927 297.705322,67.812927 
	C297.705322,78.939804 297.705322,89.676247 297.705322,100.811752 
	C285.060699,100.811752 272.320801,100.811752 259.000031,100.811752 
	C259.000031,108.789391 259.000092,116.384979 259.000031,123.980568 
	C259.000000,131.477493 258.963318,138.974655 259.008698,146.471298 
	C259.070618,156.707886 265.732819,163.897156 276.269928,163.820801 
	C283.484985,163.768524 290.686340,162.012115 297.897949,161.048599 
	C298.709259,160.940216 299.547516,161.033936 300.092987,161.033936 
	C301.406250,170.964630 302.678894,180.744171 304.000671,190.517044 
	C304.657501,195.373260 302.637787,197.283768 296.625549,198.062653 
	C293.506775,198.466690 290.473114,199.527756 287.700500,200.645996 
	C275.979095,201.000000 263.958221,201.000000 251.468658,201.000000 
z"/>
<path fill="#FFFFFF" d="
M581.000000,80.541924 
	C580.392578,81.167213 579.318176,81.220406 579.245422,81.518211 
	C576.953857,90.902161 574.759521,100.309875 572.448853,110.146515 
	C569.815491,108.827385 567.191833,107.354370 564.445679,106.164055 
	C549.817871,99.823616 529.319885,104.496185 523.658142,121.949097 
	C522.526672,125.436996 522.095032,129.287979 522.070312,132.976440 
	C521.926208,154.450958 521.999695,175.926941 521.999695,197.700958 
	C506.739929,197.700958 491.669739,197.700958 475.999969,197.700958 
	C475.999969,196.052811 475.999908,194.291321 475.999908,192.529831 
	C476.000031,164.037354 475.880737,135.544083 476.065338,107.052803 
	C476.129700,97.123558 475.509552,94.733871 464.000458,92.464073 
	C464.000458,85.198936 464.133911,77.879715 463.950104,70.568474 
	C463.840607,66.212997 467.484344,66.251053 469.677979,66.169228 
	C479.820618,65.790924 490.005280,65.578903 500.135254,66.090958 
	C510.215424,66.600502 517.309631,71.836052 520.486877,82.269119 
	C529.838257,65.898750 544.975464,63.062481 561.432495,64.184235 
	C566.385010,64.521812 571.204285,67.001083 576.050415,68.602562 
	C577.550537,69.098282 578.937927,69.935127 580.688477,70.307884 
	C581.000000,73.361290 581.000000,76.722572 581.000000,80.541924 
z"/>
<path fill="transparent" d="
M57.531342,1.000000 
	C56.783768,1.977724 55.706806,3.495299 54.329975,3.850496 
	C38.861980,7.840940 29.933945,18.442549 26.210487,33.189686 
	C24.050159,41.745892 23.935596,50.828457 23.041294,59.688381 
	C22.779421,62.282791 23.001007,64.926003 23.001007,68.001083 
	C15.767123,68.001083 8.852172,68.001083 1.468611,68.000542 
	C1.000000,45.745750 1.000000,23.491501 1.000000,1.000000 
	C19.686892,1.000000 38.374786,1.000000 57.531342,1.000000 
z"/>
<path fill="#FFFFFF" d="
M147.000061,198.000000 
	C139.526199,198.000000 132.552292,198.000000 125.290199,198.000000 
	C125.290199,155.404327 125.290199,113.021828 125.290199,70.319656 
	C140.544846,70.319656 155.940247,70.319656 171.832550,70.319656 
	C171.832550,71.579521 171.832550,73.006851 171.832550,74.434181 
	C171.832550,113.571487 171.731628,152.709381 171.953979,191.845413 
	C171.983398,197.025055 170.485733,198.482513 165.478577,198.105667 
	C159.516830,197.656998 153.495514,198.000000 147.000061,198.000000 
z"/>
<path fill="currentColor" d="
M133.407471,11.242754 
	C143.427628,6.972839 152.810486,6.461631 162.498672,11.695937 
	C170.245483,15.881364 174.058701,22.355995 174.882660,30.440065 
	C176.788498,49.139263 165.416397,59.577503 148.505646,60.773968 
	C137.653854,61.541752 123.336182,54.434216 121.777077,38.318058 
	C120.664162,26.814108 123.667885,18.038647 133.407471,11.242754 
z"/>
<path fill="#000000" d="
M371.501099,105.195496 
	C377.679016,100.909546 384.266632,100.588661 391.065369,100.972252 
	C398.913147,101.415024 405.115631,107.809929 404.905579,115.747124 
	C391.696320,115.747124 378.478668,115.747124 364.256012,115.747124 
	C366.792755,111.924217 368.968353,108.645554 371.501099,105.195496 
z"/>
</svg>
